<svg width="270" height="251" viewBox="0 0 270 251" fill="none" xmlns="http://www.w3.org/2000/svg">
<path d="M0.888672 163V153.047H4.375C5.58268 153.047 6.4987 153.279 7.12305 153.744C7.7474 154.204 8.05957 154.881 8.05957 155.774C8.05957 156.262 7.93424 156.693 7.68359 157.066C7.43294 157.436 7.08431 157.707 6.6377 157.88C7.14811 158.007 7.54915 158.265 7.84082 158.652C8.13704 159.04 8.28516 159.514 8.28516 160.074C8.28516 161.031 7.97982 161.756 7.36914 162.248C6.75846 162.74 5.88802 162.991 4.75781 163H0.888672ZM2.93945 158.666V161.353H4.69629C5.17936 161.353 5.55534 161.239 5.82422 161.011C6.09766 160.778 6.23438 160.459 6.23438 160.054C6.23438 159.142 5.7627 158.68 4.81934 158.666H2.93945ZM2.93945 157.217H4.45703C5.49154 157.199 6.00879 156.786 6.00879 155.979C6.00879 155.528 5.87663 155.205 5.6123 155.009C5.35254 154.808 4.9401 154.708 4.375 154.708H2.93945V157.217ZM18.3507 163H16.2999V158.734H12.3009V163H10.2501V153.047H12.3009V157.08H16.2999V153.047H18.3507V163ZM26.5363 153.047H28.5939V163H26.5363V156.39L22.5509 163H20.5002V153.047H22.5509V159.671L26.5363 153.047ZM33.4709 153.047L36.0276 160.266L38.5705 153.047H41.2639V163H39.2063V160.279L39.4114 155.583L36.7248 163H35.3166L32.637 155.59L32.842 160.279V163H30.7913V153.047H33.4709ZM49.2171 160.949H45.6214L44.9378 163H42.7571L46.4622 153.047H48.3626L52.0882 163H49.9075L49.2171 160.949ZM46.1751 159.288H48.6634L47.4124 155.562L46.1751 159.288ZM61.5385 163H59.4877V158.734H55.4887V163H53.4379V153.047H55.4887V157.08H59.4877V153.047H61.5385V163ZM69.7241 153.047H71.7817V163H69.7241V156.39L65.7388 163H63.688V153.047H65.7388V159.671L69.7241 153.047ZM79.9673 158.687H76.0298V161.353H80.6509V163H73.9791V153.047H80.6373V154.708H76.0298V157.08H79.9673V158.687ZM89.4275 158.933H88.2448V163H86.1941V153.047H88.2448V157.032H89.1814L91.615 153.047H94.1169L91.0476 157.757L94.4382 163H91.9909L89.4275 158.933ZM108.786 165.447H106.892V163H100.891V165.44H98.9491L98.8397 161.353H99.5917C99.9973 161.015 100.309 160.521 100.528 159.869C100.752 159.213 100.902 158.402 100.979 157.436L101.266 153.047H107.788V161.353H108.95L108.786 165.447ZM101.943 161.353H105.737V154.708H103.215L103.044 157.326C102.907 159.081 102.54 160.423 101.943 161.353ZM116.438 158.687H112.501V161.353H117.122V163H110.45V153.047H117.108V154.708H112.501V157.08H116.438V158.687ZM126.374 154.708H123.325V163H121.274V154.708H118.267V153.047H126.374V154.708ZM132.769 160.949H129.173L128.489 163H126.309L130.014 153.047H131.914L135.64 163H133.459L132.769 160.949ZM129.727 159.288H132.215L130.964 155.562L129.727 159.288ZM145.206 153.047V163H143.149V154.708H140.496L140.332 158.222C140.264 159.407 140.113 160.341 139.881 161.024C139.649 161.703 139.309 162.202 138.863 162.521C138.416 162.836 137.805 162.995 137.03 163H136.497V161.353L136.839 161.318C137.354 161.25 137.721 160.954 137.94 160.43C138.163 159.901 138.304 158.962 138.363 157.613L138.534 153.047H145.206ZM152.018 163V159.411H150.35L148.552 163H146.337L148.463 158.755C147.438 158.19 146.925 157.312 146.925 156.123C146.925 155.148 147.244 154.394 147.882 153.86C148.52 153.327 149.411 153.056 150.555 153.047H154.075V163H152.018ZM148.976 156.273C148.976 156.829 149.11 157.233 149.379 157.483C149.653 157.734 150.06 157.859 150.603 157.859H152.018V154.708H150.603C149.518 154.708 148.976 155.23 148.976 156.273ZM158.87 153.047L161.427 160.266L163.97 153.047H166.663V163H164.606V160.279L164.811 155.583L162.124 163H160.716L158.036 155.59L158.242 160.279V163H156.191V153.047H158.87Z" fill="#212121"/>
<path d="M7.43066 183.047H8.74316V193H7.43066V185.33L2.5293 193H1.20996V183.047H2.5293V190.717L7.43066 183.047ZM11.4464 191.968L11.8839 191.428C12.3761 190.79 12.6563 189.833 12.7247 188.557L12.8409 185.604H17.6055V191.968H18.5557V195.174H17.2911V193H12.13V195.174H10.8653L10.8721 191.968H11.4464ZM12.9434 191.968H16.3409V186.772H14.0645L13.9893 188.536C13.9119 190.008 13.5632 191.152 12.9434 191.968ZM23.4464 193.137C22.4438 193.137 21.6281 192.809 20.9992 192.152C20.3703 191.492 20.0558 190.61 20.0558 189.507V189.274C20.0558 188.541 20.1948 187.887 20.4728 187.312C20.7554 186.734 21.1473 186.283 21.6486 185.959C22.1545 185.631 22.7013 185.467 23.2892 185.467C24.2508 185.467 24.9982 185.784 25.5314 186.417C26.0646 187.05 26.3312 187.957 26.3312 189.138V189.664H21.3205C21.3387 190.393 21.5506 190.983 21.9562 191.435C22.3664 191.881 22.8859 192.104 23.5148 192.104C23.9614 192.104 24.3397 192.013 24.6496 191.831C24.9595 191.649 25.2306 191.407 25.463 191.106L26.2355 191.708C25.6157 192.66 24.686 193.137 23.4464 193.137ZM23.2892 186.506C22.7788 186.506 22.3504 186.693 22.0041 187.066C21.6577 187.436 21.4435 187.955 21.3615 188.625H25.0666V188.529C25.0301 187.887 24.8569 187.39 24.547 187.039C24.2371 186.684 23.8179 186.506 23.2892 186.506ZM33.0061 185.604H34.2707V193H33.0061V187.606L29.595 193H28.3303V185.604H29.595V191.004L33.0061 185.604ZM33.3479 182.91C33.3479 183.462 33.1588 183.906 32.7805 184.243C32.4068 184.576 31.9146 184.742 31.3039 184.742C30.6933 184.742 30.1988 184.574 29.8205 184.236C29.4423 183.899 29.2532 183.457 29.2532 182.91H30.2854C30.2854 183.229 30.372 183.48 30.5452 183.662C30.7183 183.84 30.9713 183.929 31.3039 183.929C31.623 183.929 31.8713 183.84 32.0491 183.662C32.2314 183.484 32.3225 183.234 32.3225 182.91H33.3479ZM42.764 193H41.4993V189.842H38.1019V193H36.8304V185.604H38.1019V188.81H41.4993V185.604H42.764V193ZM46.602 188.153H48.5229C49.3614 188.162 50.0245 188.381 50.5121 188.81C50.9997 189.238 51.2436 189.819 51.2436 190.553C51.2436 191.291 50.9929 191.883 50.4916 192.33C49.9903 192.777 49.3158 193 48.4682 193H45.3373V185.604H46.602V188.153ZM53.8822 193H52.6107V185.604H53.8822V193ZM46.602 189.186V191.968H48.4818C48.9558 191.968 49.3227 191.847 49.5824 191.605C49.8422 191.359 49.9721 191.024 49.9721 190.601C49.9721 190.19 49.8445 189.855 49.5893 189.596C49.3386 189.331 48.9854 189.195 48.5297 189.186H46.602ZM59.5796 193.137C58.577 193.137 57.7612 192.809 57.1323 192.152C56.5034 191.492 56.1889 190.61 56.1889 189.507V189.274C56.1889 188.541 56.3279 187.887 56.6059 187.312C56.8885 186.734 57.2804 186.283 57.7817 185.959C58.2876 185.631 58.8345 185.467 59.4223 185.467C60.3839 185.467 61.1313 185.784 61.6645 186.417C62.1977 187.05 62.4643 187.957 62.4643 189.138V189.664H57.4536C57.4718 190.393 57.6837 190.983 58.0893 191.435C58.4995 191.881 59.019 192.104 59.6479 192.104C60.0945 192.104 60.4728 192.013 60.7827 191.831C61.0926 191.649 61.3638 191.407 61.5962 191.106L62.3686 191.708C61.7488 192.66 60.8192 193.137 59.5796 193.137ZM59.4223 186.506C58.9119 186.506 58.4835 186.693 58.1372 187.066C57.7908 187.436 57.5766 187.955 57.4946 188.625H61.1997V188.529C61.1632 187.887 60.9901 187.39 60.6802 187.039C60.3703 186.684 59.951 186.506 59.4223 186.506ZM71.2135 192.104C71.6647 192.104 72.0589 191.968 72.3961 191.694C72.7334 191.421 72.9202 191.079 72.9567 190.669H74.153C74.1302 191.093 73.9843 191.496 73.7155 191.879C73.4466 192.262 73.0866 192.567 72.6354 192.795C72.1888 193.023 71.7148 193.137 71.2135 193.137C70.2064 193.137 69.4043 192.802 68.8073 192.132C68.2148 191.457 67.9186 190.537 67.9186 189.37V189.158C67.9186 188.438 68.0508 187.798 68.3151 187.237C68.5794 186.677 68.9577 186.242 69.4498 185.932C69.9466 185.622 70.5322 185.467 71.2067 185.467C72.0361 185.467 72.7243 185.715 73.2711 186.212C73.8226 186.709 74.1165 187.354 74.153 188.146H72.9567C72.9202 187.668 72.7379 187.276 72.4098 186.971C72.0862 186.661 71.6852 186.506 71.2067 186.506C70.5641 186.506 70.0651 186.738 69.7096 187.203C69.3587 187.663 69.1832 188.331 69.1832 189.206V189.445C69.1832 190.298 69.3587 190.954 69.7096 191.414C70.0605 191.874 70.5618 192.104 71.2135 192.104ZM75.6599 189.233C75.6599 188.509 75.8012 187.857 76.0837 187.278C76.3708 186.7 76.7673 186.253 77.2732 185.938C77.7836 185.624 78.3646 185.467 79.0163 185.467C80.0235 185.467 80.837 185.815 81.4568 186.513C82.0811 187.21 82.3933 188.137 82.3933 189.295V189.384C82.3933 190.104 82.2543 190.751 81.9763 191.325C81.7029 191.895 81.3086 192.339 80.7937 192.658C80.2833 192.977 79.6954 193.137 79.03 193.137C78.0274 193.137 77.2139 192.788 76.5896 192.091C75.9698 191.394 75.6599 190.471 75.6599 189.322V189.233ZM76.9314 189.384C76.9314 190.204 77.1205 190.863 77.4987 191.359C77.8816 191.856 78.392 192.104 79.03 192.104C79.6726 192.104 80.183 191.854 80.5612 191.353C80.9395 190.847 81.1286 190.14 81.1286 189.233C81.1286 188.422 80.9349 187.766 80.5476 187.265C80.1648 186.759 79.6543 186.506 79.0163 186.506C78.392 186.506 77.8884 186.754 77.5056 187.251C77.1228 187.748 76.9314 188.459 76.9314 189.384ZM84.0643 189.233C84.0643 188.509 84.2055 187.857 84.4881 187.278C84.7752 186.7 85.1717 186.253 85.6775 185.938C86.188 185.624 86.769 185.467 87.4207 185.467C88.4279 185.467 89.2413 185.815 89.8611 186.513C90.4855 187.21 90.7977 188.137 90.7977 189.295V189.384C90.7977 190.104 90.6587 190.751 90.3807 191.325C90.1072 191.895 89.713 192.339 89.198 192.658C88.6876 192.977 88.0997 193.137 87.4344 193.137C86.4318 193.137 85.6183 192.788 84.9939 192.091C84.3742 191.394 84.0643 190.471 84.0643 189.322V189.233ZM85.3357 189.384C85.3357 190.204 85.5249 190.863 85.9031 191.359C86.2859 191.856 86.7964 192.104 87.4344 192.104C88.077 192.104 88.5874 191.854 88.9656 191.353C89.3439 190.847 89.533 190.14 89.533 189.233C89.533 188.422 89.3393 187.766 88.952 187.265C88.5691 186.759 88.0587 186.506 87.4207 186.506C86.7964 186.506 86.2928 186.754 85.91 187.251C85.5271 187.748 85.3357 188.459 85.3357 189.384ZM96.0507 186.027C96.9804 186.027 97.7232 186.34 98.2792 186.964C98.8397 187.584 99.12 188.402 99.12 189.418V189.534C99.12 190.231 98.9856 190.856 98.7167 191.407C98.4478 191.954 98.0604 192.38 97.5546 192.686C97.0533 192.986 96.4745 193.137 95.8182 193.137C94.8248 193.137 94.025 192.806 93.4188 192.146C92.8127 191.48 92.5097 190.589 92.5097 189.473V188.857C92.5097 187.303 92.7968 186.068 93.371 185.152C93.9498 184.236 94.802 183.678 95.9276 183.478C96.5656 183.364 96.9963 183.225 97.2196 183.061C97.4429 182.896 97.5546 182.671 97.5546 182.384H98.5936C98.5936 182.953 98.4638 183.398 98.204 183.717C97.9488 184.036 97.5386 184.261 96.9735 184.394L96.0302 184.605C95.2782 184.783 94.7131 185.084 94.3348 185.508C93.9611 185.927 93.7173 186.488 93.6034 187.189C94.2733 186.415 95.0891 186.027 96.0507 186.027ZM95.8046 187.066C95.1848 187.066 94.6926 187.276 94.328 187.695C93.9634 188.11 93.7811 188.687 93.7811 189.425V189.534C93.7811 190.327 93.9634 190.956 94.328 191.421C94.6972 191.881 95.1939 192.111 95.8182 192.111C96.4472 192.111 96.9439 191.879 97.3085 191.414C97.6731 190.949 97.8554 190.27 97.8554 189.377C97.8554 188.68 97.6708 188.121 97.3016 187.702C96.9371 187.278 96.438 187.066 95.8046 187.066ZM107.087 189.384C107.087 190.509 106.829 191.416 106.314 192.104C105.799 192.793 105.102 193.137 104.223 193.137C103.325 193.137 102.618 192.852 102.103 192.282V195.844H100.839V185.604H101.994L102.056 186.424C102.571 185.786 103.286 185.467 104.202 185.467C105.091 185.467 105.793 185.802 106.308 186.472C106.827 187.142 107.087 188.074 107.087 189.268V189.384ZM105.822 189.24C105.822 188.406 105.644 187.748 105.289 187.265C104.934 186.782 104.446 186.54 103.826 186.54C103.061 186.54 102.486 186.88 102.103 187.559V191.093C102.482 191.767 103.061 192.104 103.84 192.104C104.446 192.104 104.927 191.865 105.282 191.387C105.642 190.904 105.822 190.188 105.822 189.24ZM113.687 193C113.614 192.854 113.554 192.594 113.509 192.221C112.921 192.831 112.219 193.137 111.403 193.137C110.674 193.137 110.075 192.932 109.606 192.521C109.141 192.107 108.908 191.583 108.908 190.949C108.908 190.179 109.2 189.582 109.783 189.158C110.371 188.73 111.196 188.516 112.258 188.516H113.488V187.935C113.488 187.493 113.356 187.142 113.092 186.882C112.828 186.618 112.438 186.485 111.923 186.485C111.472 186.485 111.093 186.599 110.788 186.827C110.483 187.055 110.33 187.331 110.33 187.654H109.059C109.059 187.285 109.189 186.93 109.448 186.588C109.713 186.242 110.068 185.968 110.515 185.768C110.966 185.567 111.46 185.467 111.998 185.467C112.85 185.467 113.518 185.681 114.001 186.109C114.484 186.533 114.735 187.119 114.753 187.866V191.271C114.753 191.95 114.84 192.49 115.013 192.891V193H113.687ZM111.588 192.036C111.984 192.036 112.36 191.934 112.716 191.729C113.071 191.523 113.329 191.257 113.488 190.929V189.411H112.497C110.948 189.411 110.173 189.865 110.173 190.771C110.173 191.168 110.305 191.478 110.569 191.701C110.834 191.924 111.173 192.036 111.588 192.036ZM123.055 189.787H122.166V193H120.901V189.787H120.013L117.942 193H116.342L118.987 189.172L116.595 185.604H118.126L120.033 188.666H120.901V185.604H122.166V188.666H123.027L124.948 185.604H126.48L124.08 189.179L126.726 193H125.126L123.055 189.787ZM131.227 193.137C130.224 193.137 129.408 192.809 128.779 192.152C128.151 191.492 127.836 190.61 127.836 189.507V189.274C127.836 188.541 127.975 187.887 128.253 187.312C128.536 186.734 128.928 186.283 129.429 185.959C129.935 185.631 130.482 185.467 131.07 185.467C132.031 185.467 132.779 185.784 133.312 186.417C133.845 187.05 134.112 187.957 134.112 189.138V189.664H129.101C129.119 190.393 129.331 190.983 129.737 191.435C130.147 191.881 130.666 192.104 131.295 192.104C131.742 192.104 132.12 192.013 132.43 191.831C132.74 191.649 133.011 191.407 133.243 191.106L134.016 191.708C133.396 192.66 132.466 193.137 131.227 193.137ZM131.07 186.506C130.559 186.506 130.131 186.693 129.784 187.066C129.438 187.436 129.224 187.955 129.142 188.625H132.847V188.529C132.81 187.887 132.637 187.39 132.327 187.039C132.017 186.684 131.598 186.506 131.07 186.506ZM142.044 193H140.78V189.842H137.382V193H136.111V185.604H137.382V188.81H140.78V185.604H142.044V193ZM149.286 185.604H150.551V193H149.286V187.606L145.875 193H144.611V185.604H145.875V191.004L149.286 185.604ZM158.655 185.604V193H157.383V190.122H155.476L153.733 193H152.366L154.225 189.931C153.751 189.757 153.386 189.491 153.131 189.131C152.881 188.766 152.755 188.342 152.755 187.859C152.755 187.185 153.008 186.643 153.514 186.232C154.02 185.818 154.697 185.608 155.544 185.604H158.655ZM154.027 187.873C154.027 188.233 154.15 188.525 154.396 188.748C154.642 188.967 154.968 189.078 155.373 189.083H157.383V186.629H155.565C155.095 186.629 154.722 186.745 154.444 186.978C154.166 187.205 154.027 187.504 154.027 187.873ZM161.064 194.982L160.346 194.49C160.775 193.893 160.998 193.278 161.016 192.645V191.503H162.253V192.494C162.253 192.954 162.14 193.415 161.912 193.875C161.688 194.335 161.406 194.704 161.064 194.982ZM172.732 193C172.659 192.854 172.6 192.594 172.554 192.221C171.966 192.831 171.265 193.137 170.449 193.137C169.72 193.137 169.12 192.932 168.651 192.521C168.186 192.107 167.954 191.583 167.954 190.949C167.954 190.179 168.245 189.582 168.829 189.158C169.417 188.73 170.242 188.516 171.303 188.516H172.534V187.935C172.534 187.493 172.402 187.142 172.137 186.882C171.873 186.618 171.483 186.485 170.968 186.485C170.517 186.485 170.139 186.599 169.834 186.827C169.528 187.055 169.376 187.331 169.376 187.654H168.104C168.104 187.285 168.234 186.93 168.494 186.588C168.758 186.242 169.114 185.968 169.56 185.768C170.011 185.567 170.506 185.467 171.044 185.467C171.896 185.467 172.563 185.681 173.047 186.109C173.53 186.533 173.78 187.119 173.799 187.866V191.271C173.799 191.95 173.885 192.49 174.058 192.891V193H172.732ZM170.633 192.036C171.03 192.036 171.406 191.934 171.761 191.729C172.117 191.523 172.374 191.257 172.534 190.929V189.411H171.543C169.993 189.411 169.218 189.865 169.218 190.771C169.218 191.168 169.351 191.478 169.615 191.701C169.879 191.924 170.219 192.036 170.633 192.036ZM185.59 186.629H183.108V193H181.844V186.629H179.41V185.604H185.59V186.629ZM191.697 193C191.624 192.854 191.565 192.594 191.519 192.221C190.932 192.831 190.23 193.137 189.414 193.137C188.685 193.137 188.086 192.932 187.616 192.521C187.151 192.107 186.919 191.583 186.919 190.949C186.919 190.179 187.211 189.582 187.794 189.158C188.382 188.73 189.207 188.516 190.268 188.516H191.499V187.935C191.499 187.493 191.367 187.142 191.102 186.882C190.838 186.618 190.448 186.485 189.934 186.485C189.482 186.485 189.104 186.599 188.799 186.827C188.493 187.055 188.341 187.331 188.341 187.654H187.069C187.069 187.285 187.199 186.93 187.459 186.588C187.723 186.242 188.079 185.968 188.525 185.768C188.976 185.567 189.471 185.467 190.009 185.467C190.861 185.467 191.529 185.681 192.012 186.109C192.495 186.533 192.745 187.119 192.764 187.866V191.271C192.764 191.95 192.85 192.49 193.023 192.891V193H191.697ZM189.599 192.036C189.995 192.036 190.371 191.934 190.726 191.729C191.082 191.523 191.339 191.257 191.499 190.929V189.411H190.508C188.958 189.411 188.184 189.865 188.184 190.771C188.184 191.168 188.316 191.478 188.58 191.701C188.844 191.924 189.184 192.036 189.599 192.036ZM197.47 189.849H196.547V193H195.275V185.604H196.547V188.734H197.374L199.862 185.604H201.394L198.468 189.158L201.64 193H200.033L197.47 189.849ZM209.046 189.787H208.157V193H206.893V189.787H206.004L203.933 193H202.333L204.979 189.172L202.586 185.604H204.117L206.024 188.666H206.893V185.604H208.157V188.666H209.019L210.94 185.604H212.471L210.071 189.179L212.717 193H211.117L209.046 189.787ZM217.218 193.137C216.215 193.137 215.4 192.809 214.771 192.152C214.142 191.492 213.827 190.61 213.827 189.507V189.274C213.827 188.541 213.966 187.887 214.244 187.312C214.527 186.734 214.919 186.283 215.42 185.959C215.926 185.631 216.473 185.467 217.061 185.467C218.022 185.467 218.77 185.784 219.303 186.417C219.836 187.05 220.103 187.957 220.103 189.138V189.664H215.092C215.11 190.393 215.322 190.983 215.728 191.435C216.138 191.881 216.657 192.104 217.286 192.104C217.733 192.104 218.111 192.013 218.421 191.831C218.731 191.649 219.002 191.407 219.235 191.106L220.007 191.708C219.387 192.66 218.458 193.137 217.218 193.137ZM217.061 186.506C216.55 186.506 216.122 186.693 215.776 187.066C215.429 187.436 215.215 187.955 215.133 188.625H218.838V188.529C218.802 187.887 218.628 187.39 218.319 187.039C218.009 186.684 217.589 186.506 217.061 186.506ZM7 217H5.73535V213.842H2.33789V217H1.06641V209.604H2.33789V212.81H5.73535V209.604H7V217ZM14.0235 217C13.9506 216.854 13.8914 216.594 13.8458 216.221C13.2579 216.831 12.5561 217.137 11.7403 217.137C11.0111 217.137 10.4119 216.932 9.94246 216.521C9.47762 216.107 9.2452 215.583 9.2452 214.949C9.2452 214.179 9.53686 213.582 10.1202 213.158C10.7081 212.73 11.533 212.516 12.5948 212.516H13.8253V211.935C13.8253 211.493 13.6931 211.142 13.4288 210.882C13.1645 210.618 12.7748 210.485 12.2598 210.485C11.8087 210.485 11.4304 210.599 11.1251 210.827C10.8197 211.055 10.6671 211.331 10.6671 211.654H9.39559C9.39559 211.285 9.52547 210.93 9.78523 210.588C10.0496 210.242 10.405 209.968 10.8516 209.768C11.3028 209.567 11.7973 209.467 12.335 209.467C13.1873 209.467 13.8549 209.681 14.338 210.109C14.821 210.533 15.0717 211.119 15.0899 211.866V215.271C15.0899 215.95 15.1765 216.49 15.3497 216.891V217H14.0235ZM11.9249 216.036C12.3214 216.036 12.6973 215.934 13.0528 215.729C13.4083 215.523 13.6658 215.257 13.8253 214.929V213.411H12.8341C11.2846 213.411 10.5098 213.865 10.5098 214.771C10.5098 215.168 10.642 215.478 10.9063 215.701C11.1707 215.924 11.5102 216.036 11.9249 216.036ZM23.0773 217H21.8058V214.32C21.2498 214.466 20.6802 214.539 20.0968 214.539C19.1717 214.539 18.4653 214.302 17.9777 213.828C17.4946 213.354 17.2485 212.68 17.2394 211.805V209.597H18.5041V211.846C18.5268 212.949 19.0578 213.5 20.0968 213.5C20.6802 213.5 21.2498 213.427 21.8058 213.281V209.604H23.0773V217ZM30.094 217C30.0211 216.854 29.9618 216.594 29.9163 216.221C29.3284 216.831 28.6265 217.137 27.8108 217.137C27.0816 217.137 26.4823 216.932 26.0129 216.521C25.5481 216.107 25.3157 215.583 25.3157 214.949C25.3157 214.179 25.6073 213.582 26.1907 213.158C26.7786 212.73 27.6034 212.516 28.6653 212.516H29.8957V211.935C29.8957 211.493 29.7636 211.142 29.4993 210.882C29.2349 210.618 28.8453 210.485 28.3303 210.485C27.8791 210.485 27.5009 210.599 27.1955 210.827C26.8902 211.055 26.7375 211.331 26.7375 211.654H25.4661C25.4661 211.285 25.5959 210.93 25.8557 210.588C26.12 210.242 26.4755 209.968 26.9221 209.768C27.3733 209.567 27.8677 209.467 28.4055 209.467C29.2577 209.467 29.9254 209.681 30.4084 210.109C30.8915 210.533 31.1422 211.119 31.1604 211.866V215.271C31.1604 215.95 31.247 216.49 31.4202 216.891V217H30.094ZM27.9954 216.036C28.3918 216.036 28.7678 215.934 29.1233 215.729C29.4788 215.523 29.7362 215.257 29.8957 214.929V213.411H28.9045C27.3551 213.411 26.5803 213.865 26.5803 214.771C26.5803 215.168 26.7125 215.478 26.9768 215.701C27.2411 215.924 27.5806 216.036 27.9954 216.036ZM39.6263 209.604V217H38.3548V210.649H35.8392L35.6888 213.418C35.6068 214.689 35.3926 215.599 35.0462 216.146C34.7044 216.692 34.1598 216.977 33.4124 217H32.9066V215.886L33.2689 215.858C33.679 215.813 33.973 215.576 34.1507 215.147C34.3284 214.719 34.4424 213.926 34.4925 212.769L34.6292 209.604H39.6263ZM41.7416 213.233C41.7416 212.509 41.8829 211.857 42.1654 211.278C42.4525 210.7 42.849 210.253 43.3549 209.938C43.8653 209.624 44.4464 209.467 45.098 209.467C46.1052 209.467 46.9187 209.815 47.5385 210.513C48.1628 211.21 48.475 212.137 48.475 213.295V213.384C48.475 214.104 48.336 214.751 48.058 215.325C47.7846 215.895 47.3904 216.339 46.8754 216.658C46.365 216.977 45.7771 217.137 45.1117 217.137C44.1091 217.137 43.2956 216.788 42.6713 216.091C42.0515 215.394 41.7416 214.471 41.7416 213.322V213.233ZM43.0131 213.384C43.0131 214.204 43.2022 214.863 43.5805 215.359C43.9633 215.856 44.4737 216.104 45.1117 216.104C45.7543 216.104 46.2647 215.854 46.643 215.353C47.0212 214.847 47.2104 214.14 47.2104 213.233C47.2104 212.422 47.0167 211.766 46.6293 211.265C46.2465 210.759 45.7361 210.506 45.098 210.506C44.4737 210.506 43.9701 210.754 43.5873 211.251C43.2045 211.748 43.0131 212.459 43.0131 213.384ZM60.4234 217H59.1587V210.649H55.7545V217H54.483V209.604H60.4234V217ZM62.5387 213.233C62.5387 212.509 62.68 211.857 62.9625 211.278C63.2496 210.7 63.6461 210.253 64.152 209.938C64.6624 209.624 65.2435 209.467 65.8952 209.467C66.9023 209.467 67.7158 209.815 68.3356 210.513C68.9599 211.21 69.2721 212.137 69.2721 213.295V213.384C69.2721 214.104 69.1331 214.751 68.8551 215.325C68.5817 215.895 68.1875 216.339 67.6725 216.658C67.1621 216.977 66.5742 217.137 65.9088 217.137C64.9062 217.137 64.0927 216.788 63.4684 216.091C62.8486 215.394 62.5387 214.471 62.5387 213.322V213.233ZM63.8102 213.384C63.8102 214.204 63.9993 214.863 64.3776 215.359C64.7604 215.856 65.2708 216.104 65.9088 216.104C66.5514 216.104 67.0618 215.854 67.4401 215.353C67.8183 214.847 68.0075 214.14 68.0075 213.233C68.0075 212.422 67.8138 211.766 67.4264 211.265C67.0436 210.759 66.5332 210.506 65.8952 210.506C65.2708 210.506 64.7672 210.754 64.3844 211.251C64.0016 211.748 63.8102 212.459 63.8102 213.384ZM71.3943 217V209.604H74.279C75.2634 209.604 76.0176 209.777 76.5417 210.123C77.0704 210.465 77.3347 210.968 77.3347 211.634C77.3347 211.976 77.2321 212.285 77.0271 212.563C76.822 212.837 76.5189 213.047 76.1179 213.192C76.5645 213.297 76.9223 213.502 77.1911 213.808C77.4646 214.113 77.6013 214.478 77.6013 214.901C77.6013 215.58 77.3506 216.1 76.8493 216.46C76.3526 216.82 75.6485 217 74.737 217H71.3943ZM72.6589 213.753V215.981H74.7507C75.2793 215.981 75.6736 215.883 75.9333 215.688C76.1976 215.492 76.3298 215.216 76.3298 214.86C76.3298 214.122 75.7875 213.753 74.7029 213.753H72.6589ZM72.6589 212.741H74.2927C75.4776 212.741 76.07 212.395 76.07 211.702C76.07 211.009 75.5095 210.652 74.3884 210.629H72.6589V212.741ZM82.6629 216.104C83.1141 216.104 83.5083 215.968 83.8455 215.694C84.1827 215.421 84.3696 215.079 84.4061 214.669H85.6023C85.5796 215.093 85.4337 215.496 85.1648 215.879C84.896 216.262 84.5359 216.567 84.0848 216.795C83.6381 217.023 83.1642 217.137 82.6629 217.137C81.6557 217.137 80.8536 216.802 80.2566 216.132C79.6642 215.457 79.368 214.537 79.368 213.37V213.158C79.368 212.438 79.5001 211.798 79.7645 211.237C80.0288 210.677 80.407 210.242 80.8992 209.932C81.396 209.622 81.9816 209.467 82.6561 209.467C83.4855 209.467 84.1736 209.715 84.7205 210.212C85.2719 210.709 85.5659 211.354 85.6023 212.146H84.4061C84.3696 211.668 84.1873 211.276 83.8592 210.971C83.5356 210.661 83.1346 210.506 82.6561 210.506C82.0135 210.506 81.5145 210.738 81.159 211.203C80.8081 211.663 80.6326 212.331 80.6326 213.206V213.445C80.6326 214.298 80.8081 214.954 81.159 215.414C81.5099 215.874 82.0112 216.104 82.6629 216.104ZM90.5136 217.137C89.511 217.137 88.6952 216.809 88.0663 216.152C87.4374 215.492 87.1229 214.61 87.1229 213.507V213.274C87.1229 212.541 87.2619 211.887 87.5399 211.312C87.8225 210.734 88.2144 210.283 88.7157 209.959C89.2216 209.631 89.7684 209.467 90.3563 209.467C91.3179 209.467 92.0653 209.784 92.5985 210.417C93.1317 211.05 93.3983 211.957 93.3983 213.138V213.664H88.3876C88.4058 214.393 88.6177 214.983 89.0233 215.435C89.4335 215.881 89.953 216.104 90.5819 216.104C91.0285 216.104 91.4068 216.013 91.7167 215.831C92.0266 215.649 92.2977 215.407 92.5302 215.106L93.3026 215.708C92.6828 216.66 91.7531 217.137 90.5136 217.137ZM90.3563 210.506C89.8459 210.506 89.4175 210.693 89.0712 211.066C88.7248 211.436 88.5106 211.955 88.4286 212.625H92.1337V212.529C92.0972 211.887 91.924 211.39 91.6141 211.039C91.3042 210.684 90.885 210.506 90.3563 210.506ZM95.2265 215.968L95.664 215.428C96.1562 214.79 96.4365 213.833 96.5048 212.557L96.6211 209.604H101.386V215.968H102.336V219.174H101.071V217H95.9101V219.174H94.6455L94.6523 215.968H95.2265ZM96.7236 215.968H100.121V210.772H97.8447L97.7695 212.536C97.692 214.008 97.3434 215.152 96.7236 215.968ZM110.2 217H108.936V213.842H105.538V217H104.267V209.604H105.538V212.81H108.936V209.604H110.2V217ZM115.727 217.137C114.724 217.137 113.908 216.809 113.279 216.152C112.651 215.492 112.336 214.61 112.336 213.507V213.274C112.336 212.541 112.475 211.887 112.753 211.312C113.036 210.734 113.428 210.283 113.929 209.959C114.435 209.631 114.982 209.467 115.569 209.467C116.531 209.467 117.278 209.784 117.812 210.417C118.345 211.05 118.611 211.957 118.611 213.138V213.664H113.601C113.619 214.393 113.831 214.983 114.236 215.435C114.647 215.881 115.166 216.104 115.795 216.104C116.242 216.104 116.62 216.013 116.93 215.831C117.24 215.649 117.511 215.407 117.743 215.106L118.516 215.708C117.896 216.66 116.966 217.137 115.727 217.137ZM115.569 210.506C115.059 210.506 114.631 210.693 114.284 211.066C113.938 211.436 113.724 211.955 113.642 212.625H117.347V212.529C117.31 211.887 117.137 211.39 116.827 211.039C116.517 210.684 116.098 210.506 115.569 210.506ZM120.617 217V209.604H123.502C124.487 209.604 125.241 209.777 125.765 210.123C126.293 210.465 126.558 210.968 126.558 211.634C126.558 211.976 126.455 212.285 126.25 212.563C126.045 212.837 125.742 213.047 125.341 213.192C125.788 213.297 126.145 213.502 126.414 213.808C126.688 214.113 126.824 214.478 126.824 214.901C126.824 215.58 126.574 216.1 126.072 216.46C125.576 216.82 124.872 217 123.96 217H120.617ZM121.882 213.753V215.981H123.974C124.502 215.981 124.897 215.883 125.156 215.688C125.421 215.492 125.553 215.216 125.553 214.86C125.553 214.122 125.011 213.753 123.926 213.753H121.882ZM121.882 212.741H123.516C124.701 212.741 125.293 212.395 125.293 211.702C125.293 211.009 124.733 210.652 123.612 210.629H121.882V212.741ZM134.962 217H133.698V213.842H130.3V217H129.029V209.604H130.3V212.81H133.698V209.604H134.962V217ZM137.084 213.233C137.084 212.509 137.226 211.857 137.508 211.278C137.795 210.7 138.192 210.253 138.698 209.938C139.208 209.624 139.789 209.467 140.441 209.467C141.448 209.467 142.261 209.815 142.881 210.513C143.506 211.21 143.818 212.137 143.818 213.295V213.384C143.818 214.104 143.679 214.751 143.401 215.325C143.127 215.895 142.733 216.339 142.218 216.658C141.708 216.977 141.12 217.137 140.454 217.137C139.452 217.137 138.638 216.788 138.014 216.091C137.394 215.394 137.084 214.471 137.084 213.322V213.233ZM138.356 213.384C138.356 214.204 138.545 214.863 138.923 215.359C139.306 215.856 139.816 216.104 140.454 216.104C141.097 216.104 141.607 215.854 141.986 215.353C142.364 214.847 142.553 214.14 142.553 213.233C142.553 212.422 142.359 211.766 141.972 211.265C141.589 210.759 141.079 210.506 140.441 210.506C139.816 210.506 139.313 210.754 138.93 211.251C138.547 211.748 138.356 212.459 138.356 213.384ZM150.609 209.604H151.873V217H150.609V211.606L147.198 217H145.933V209.604H147.198V215.004L150.609 209.604ZM150.951 206.91C150.951 207.462 150.761 207.906 150.383 208.243C150.01 208.576 149.517 208.742 148.907 208.742C148.296 208.742 147.802 208.574 147.423 208.236C147.045 207.899 146.856 207.457 146.856 206.91H147.888C147.888 207.229 147.975 207.48 148.148 207.662C148.321 207.84 148.574 207.929 148.907 207.929C149.226 207.929 149.474 207.84 149.652 207.662C149.834 207.484 149.925 207.234 149.925 206.91H150.951ZM164.464 213.384C164.464 214.509 164.207 215.416 163.692 216.104C163.177 216.793 162.48 217.137 161.6 217.137C160.702 217.137 159.996 216.852 159.481 216.282V219.844H158.216V209.604H159.372L159.433 210.424C159.948 209.786 160.664 209.467 161.58 209.467C162.468 209.467 163.17 209.802 163.685 210.472C164.205 211.142 164.464 212.074 164.464 213.268V213.384ZM163.2 213.24C163.2 212.406 163.022 211.748 162.667 211.265C162.311 210.782 161.823 210.54 161.204 210.54C160.438 210.54 159.864 210.88 159.481 211.559V215.093C159.859 215.767 160.438 216.104 161.217 216.104C161.823 216.104 162.304 215.865 162.66 215.387C163.02 214.904 163.2 214.188 163.2 213.24ZM171.064 217C170.991 216.854 170.932 216.594 170.886 216.221C170.299 216.831 169.597 217.137 168.781 217.137C168.052 217.137 167.452 216.932 166.983 216.521C166.518 216.107 166.286 215.583 166.286 214.949C166.286 214.179 166.577 213.582 167.161 213.158C167.749 212.73 168.574 212.516 169.635 212.516H170.866V211.935C170.866 211.493 170.734 211.142 170.469 210.882C170.205 210.618 169.815 210.485 169.3 210.485C168.849 210.485 168.471 210.599 168.166 210.827C167.86 211.055 167.708 211.331 167.708 211.654H166.436C166.436 211.285 166.566 210.93 166.826 210.588C167.09 210.242 167.446 209.968 167.892 209.768C168.343 209.567 168.838 209.467 169.376 209.467C170.228 209.467 170.896 209.681 171.379 210.109C171.862 210.533 172.112 211.119 172.131 211.866V215.271C172.131 215.95 172.217 216.49 172.39 216.891V217H171.064ZM168.966 216.036C169.362 216.036 169.738 215.934 170.093 215.729C170.449 215.523 170.706 215.257 170.866 214.929V213.411H169.875C168.325 213.411 167.55 213.865 167.55 214.771C167.55 215.168 167.683 215.478 167.947 215.701C168.211 215.924 168.551 216.036 168.966 216.036ZM177.78 210.027C178.71 210.027 179.453 210.34 180.009 210.964C180.569 211.584 180.849 212.402 180.849 213.418V213.534C180.849 214.231 180.715 214.856 180.446 215.407C180.177 215.954 179.79 216.38 179.284 216.686C178.783 216.986 178.204 217.137 177.548 217.137C176.554 217.137 175.754 216.806 175.148 216.146C174.542 215.48 174.239 214.589 174.239 213.473V212.857C174.239 211.303 174.526 210.068 175.1 209.152C175.679 208.236 176.531 207.678 177.657 207.478C178.295 207.364 178.726 207.225 178.949 207.061C179.172 206.896 179.284 206.671 179.284 206.384H180.323C180.323 206.953 180.193 207.398 179.933 207.717C179.678 208.036 179.268 208.261 178.703 208.394L177.76 208.605C177.008 208.783 176.442 209.084 176.064 209.508C175.691 209.927 175.447 210.488 175.333 211.189C176.003 210.415 176.818 210.027 177.78 210.027ZM177.534 211.066C176.914 211.066 176.422 211.276 176.057 211.695C175.693 212.11 175.511 212.687 175.511 213.425V213.534C175.511 214.327 175.693 214.956 176.057 215.421C176.427 215.881 176.923 216.111 177.548 216.111C178.177 216.111 178.673 215.879 179.038 215.414C179.402 214.949 179.585 214.27 179.585 213.377C179.585 212.68 179.4 212.121 179.031 211.702C178.666 211.278 178.167 211.066 177.534 211.066ZM182.356 213.233C182.356 212.509 182.498 211.857 182.78 211.278C183.067 210.7 183.464 210.253 183.97 209.938C184.48 209.624 185.061 209.467 185.713 209.467C186.72 209.467 187.533 209.815 188.153 210.513C188.778 211.21 189.09 212.137 189.09 213.295V213.384C189.09 214.104 188.951 214.751 188.673 215.325C188.399 215.895 188.005 216.339 187.49 216.658C186.98 216.977 186.392 217.137 185.726 217.137C184.724 217.137 183.91 216.788 183.286 216.091C182.666 215.394 182.356 214.471 182.356 213.322V213.233ZM183.628 213.384C183.628 214.204 183.817 214.863 184.195 215.359C184.578 215.856 185.088 216.104 185.726 216.104C186.369 216.104 186.879 215.854 187.258 215.353C187.636 214.847 187.825 214.14 187.825 213.233C187.825 212.422 187.631 211.766 187.244 211.265C186.861 210.759 186.351 210.506 185.713 210.506C185.088 210.506 184.585 210.754 184.202 211.251C183.819 211.748 183.628 212.459 183.628 213.384ZM196.441 210.629H193.96V217H192.695V210.629H190.262V209.604H196.441V210.629ZM199.473 212.153H201.394C202.232 212.162 202.895 212.381 203.383 212.81C203.87 213.238 204.114 213.819 204.114 214.553C204.114 215.291 203.864 215.883 203.362 216.33C202.861 216.777 202.187 217 201.339 217H198.208V209.604H199.473V212.153ZM206.753 217H205.481V209.604H206.753V217ZM199.473 213.186V215.968H201.353C201.826 215.968 202.193 215.847 202.453 215.605C202.713 215.359 202.843 215.024 202.843 214.601C202.843 214.19 202.715 213.855 202.46 213.596C202.209 213.331 201.856 213.195 201.4 213.186H199.473ZM219.323 217H218.059V210.649H214.654V217H213.383V209.604H219.323V217ZM221.439 213.233C221.439 212.509 221.58 211.857 221.863 211.278C222.15 210.7 222.546 210.253 223.052 209.938C223.562 209.624 224.143 209.467 224.795 209.467C225.802 209.467 226.616 209.815 227.236 210.513C227.86 211.21 228.172 212.137 228.172 213.295V213.384C228.172 214.104 228.033 214.751 227.755 215.325C227.482 215.895 227.087 216.339 226.572 216.658C226.062 216.977 225.474 217.137 224.809 217.137C223.806 217.137 222.993 216.788 222.368 216.091C221.749 215.394 221.439 214.471 221.439 213.322V213.233ZM222.71 213.384C222.71 214.204 222.899 214.863 223.278 215.359C223.66 215.856 224.171 216.104 224.809 216.104C225.451 216.104 225.962 215.854 226.34 215.353C226.718 214.847 226.907 214.14 226.907 213.233C226.907 212.422 226.714 211.766 226.326 211.265C225.944 210.759 225.433 210.506 224.795 210.506C224.171 210.506 223.667 210.754 223.284 211.251C222.902 211.748 222.71 212.459 222.71 213.384ZM0.683594 237.438C0.683594 236.203 0.922852 235.233 1.40137 234.526C1.87988 233.82 2.53613 233.467 3.37012 233.467C3.75749 233.467 4.09701 233.533 4.38867 233.665V230.5H5.65332V233.706C5.97233 233.547 6.34603 233.467 6.77441 233.467C7.61296 233.467 8.27148 233.82 8.75 234.526C9.22852 235.233 9.46777 236.251 9.46777 237.582C9.46777 238.671 9.22852 239.537 8.75 240.18C8.27604 240.822 7.62207 241.144 6.78809 241.144C6.34603 241.144 5.96777 241.071 5.65332 240.925V243.844H4.38867V240.945C4.08789 241.077 3.74382 241.144 3.35645 241.144C2.52702 241.144 1.87305 240.822 1.39453 240.18C0.920573 239.537 0.683594 238.658 0.683594 237.541V237.438ZM8.20312 237.438C8.20312 236.509 8.04362 235.789 7.72461 235.278C7.4056 234.763 6.96582 234.506 6.40527 234.506C6.11816 234.506 5.86751 234.551 5.65332 234.643V239.995C5.8584 240.073 6.11361 240.111 6.41895 240.111C6.98405 240.111 7.42155 239.893 7.73145 239.455C8.0459 239.018 8.20312 238.345 8.20312 237.438ZM1.94824 237.582C1.94824 238.411 2.09635 239.04 2.39258 239.469C2.6888 239.897 3.11491 240.111 3.6709 240.111C3.93522 240.111 4.17448 240.07 4.38867 239.988V234.622C4.19727 234.545 3.96257 234.506 3.68457 234.506C3.12858 234.506 2.7002 234.754 2.39941 235.251C2.09863 235.748 1.94824 236.525 1.94824 237.582ZM11.2003 237.233C11.2003 236.509 11.3415 235.857 11.6241 235.278C11.9112 234.7 12.3077 234.253 12.8136 233.938C13.324 233.624 13.905 233.467 14.5567 233.467C15.5639 233.467 16.3774 233.815 16.9971 234.513C17.6215 235.21 17.9337 236.137 17.9337 237.295V237.384C17.9337 238.104 17.7947 238.751 17.5167 239.325C17.2432 239.895 16.849 240.339 16.3341 240.658C15.8236 240.977 15.2358 241.137 14.5704 241.137C13.5678 241.137 12.7543 240.788 12.13 240.091C11.5102 239.394 11.2003 238.471 11.2003 237.322V237.233ZM12.4718 237.384C12.4718 238.204 12.6609 238.863 13.0391 239.359C13.422 239.856 13.9324 240.104 14.5704 240.104C15.213 240.104 15.7234 239.854 16.1016 239.353C16.4799 238.847 16.669 238.14 16.669 237.233C16.669 236.422 16.4753 235.766 16.088 235.265C15.7052 234.759 15.1947 234.506 14.5567 234.506C13.9324 234.506 13.4288 234.754 13.046 235.251C12.6632 235.748 12.4718 236.459 12.4718 237.384ZM26.1877 237.384C26.1877 238.509 25.9302 239.416 25.4152 240.104C24.9002 240.793 24.203 241.137 23.3234 241.137C22.4256 241.137 21.7192 240.852 21.2043 240.282V243.844H19.9396V233.604H21.0949L21.1564 234.424C21.6714 233.786 22.3869 233.467 23.3029 233.467C24.1916 233.467 24.8934 233.802 25.4084 234.472C25.9279 235.142 26.1877 236.074 26.1877 237.268V237.384ZM24.923 237.24C24.923 236.406 24.7453 235.748 24.3898 235.265C24.0343 234.782 23.5467 234.54 22.9269 234.54C22.1613 234.54 21.5871 234.88 21.2043 235.559V239.093C21.5825 239.767 22.1613 240.104 22.9406 240.104C23.5467 240.104 24.0275 239.865 24.383 239.387C24.743 238.904 24.923 238.188 24.923 237.24ZM32.4797 239.325L34.9954 233.604H36.5745V241H35.3098V235.62L32.9172 241H32.0422L29.6018 235.504V241H28.3371V233.604H29.9778L32.4797 239.325ZM43.8167 233.604H45.0814V241H43.8167V235.606L40.4056 241H39.1409V233.604H40.4056V239.004L43.8167 233.604ZM53.7797 237.384C53.7797 238.509 53.5222 239.416 53.0072 240.104C52.4923 240.793 51.795 241.137 50.9154 241.137C50.0176 241.137 49.3113 240.852 48.7963 240.282V243.844H47.5316V233.604H48.6869L48.7484 234.424C49.2634 233.786 49.9789 233.467 50.8949 233.467C51.7836 233.467 52.4854 233.802 53.0004 234.472C53.5199 235.142 53.7797 236.074 53.7797 237.268V237.384ZM52.515 237.24C52.515 236.406 52.3373 235.748 51.9818 235.265C51.6264 234.782 51.1387 234.54 50.5189 234.54C49.7533 234.54 49.1791 234.88 48.7963 235.559V239.093C49.1745 239.767 49.7533 240.104 50.5326 240.104C51.1387 240.104 51.6195 239.865 51.975 239.387C52.335 238.904 52.515 238.188 52.515 237.24ZM55.478 237.233C55.478 236.509 55.6193 235.857 55.9018 235.278C56.1889 234.7 56.5854 234.253 57.0913 233.938C57.6017 233.624 58.1828 233.467 58.8345 233.467C59.8416 233.467 60.6551 233.815 61.2749 234.513C61.8992 235.21 62.2114 236.137 62.2114 237.295V237.384C62.2114 238.104 62.0724 238.751 61.7944 239.325C61.521 239.895 61.1268 240.339 60.6118 240.658C60.1014 240.977 59.5135 241.137 58.8481 241.137C57.8455 241.137 57.032 240.788 56.4077 240.091C55.7879 239.394 55.478 238.471 55.478 237.322V237.233ZM56.7495 237.384C56.7495 238.204 56.9386 238.863 57.3169 239.359C57.6997 239.856 58.2101 240.104 58.8481 240.104C59.4907 240.104 60.0011 239.854 60.3794 239.353C60.7576 238.847 60.9468 238.14 60.9468 237.233C60.9468 236.422 60.7531 235.766 60.3657 235.265C59.9829 234.759 59.4725 234.506 58.8345 234.506C58.2101 234.506 57.7065 234.754 57.3237 235.251C56.9409 235.748 56.7495 236.459 56.7495 237.384ZM64.3336 241V233.604H67.2183C68.2027 233.604 68.9569 233.777 69.481 234.123C70.0097 234.465 70.274 234.968 70.274 235.634C70.274 235.976 70.1714 236.285 69.9664 236.563C69.7613 236.837 69.4582 237.047 69.0572 237.192C69.5038 237.297 69.8615 237.502 70.1304 237.808C70.4039 238.113 70.5406 238.478 70.5406 238.901C70.5406 239.58 70.2899 240.1 69.7886 240.46C69.2919 240.82 68.5878 241 67.6763 241H64.3336ZM65.5982 237.753V239.981H67.69C68.2186 239.981 68.6129 239.883 68.8726 239.688C69.1369 239.492 69.2691 239.216 69.2691 238.86C69.2691 238.122 68.7268 237.753 67.6421 237.753H65.5982ZM65.5982 236.741H67.232C68.4169 236.741 69.0093 236.395 69.0093 235.702C69.0093 235.009 68.4488 234.652 67.3277 234.629H65.5982V236.741ZM77.2018 241C77.1289 240.854 77.0696 240.594 77.0241 240.221C76.4362 240.831 75.7343 241.137 74.9186 241.137C74.1894 241.137 73.5901 240.932 73.1207 240.521C72.6559 240.107 72.4235 239.583 72.4235 238.949C72.4235 238.179 72.7151 237.582 73.2985 237.158C73.8864 236.73 74.7112 236.516 75.7731 236.516H77.0036V235.935C77.0036 235.493 76.8714 235.142 76.6071 234.882C76.3427 234.618 75.9531 234.485 75.4381 234.485C74.987 234.485 74.6087 234.599 74.3034 234.827C73.998 235.055 73.8454 235.331 73.8454 235.654H72.5739C72.5739 235.285 72.7038 234.93 72.9635 234.588C73.2278 234.242 73.5833 233.968 74.0299 233.768C74.4811 233.567 74.9756 233.467 75.5133 233.467C76.3655 233.467 77.0332 233.681 77.5163 234.109C77.9993 234.533 78.25 235.119 78.2682 235.866V239.271C78.2682 239.95 78.3548 240.49 78.528 240.891V241H77.2018ZM75.1032 240.036C75.4996 240.036 75.8756 239.934 76.2311 239.729C76.5866 239.523 76.8441 239.257 77.0036 238.929V237.411H76.0123C74.4629 237.411 73.6881 237.865 73.6881 238.771C73.6881 239.168 73.8203 239.478 74.0846 239.701C74.3489 239.924 74.6885 240.036 75.1032 240.036ZM86.7136 241H85.4489V237.842H82.0515V241H80.78V233.604H82.0515V236.81H85.4489V233.604H86.7136V241ZM93.9559 233.604H95.2205V241H93.9559V235.606L90.5447 241H89.2801V233.604H90.5447V239.004L93.9559 233.604ZM99.0516 236.741H100.829C100.925 235.757 101.273 234.966 101.875 234.369C102.481 233.768 103.244 233.467 104.165 233.467C105.131 233.467 105.922 233.793 106.537 234.444C107.152 235.096 107.485 235.944 107.535 236.987L107.542 237.384C107.542 238.104 107.401 238.753 107.118 239.332C106.835 239.911 106.439 240.357 105.929 240.672C105.418 240.982 104.835 241.137 104.179 241.137C103.226 241.137 102.447 240.827 101.841 240.207C101.235 239.583 100.895 238.774 100.822 237.78H99.0516V241H97.787V233.604H99.0516V236.741ZM102.073 237.384C102.073 238.204 102.262 238.863 102.641 239.359C103.023 239.856 103.536 240.104 104.179 240.104C104.821 240.104 105.329 239.852 105.703 239.346C106.081 238.84 106.27 238.136 106.27 237.233C106.27 236.427 106.079 235.771 105.696 235.265C105.313 234.759 104.803 234.506 104.165 234.506C103.536 234.506 103.03 234.754 102.647 235.251C102.265 235.748 102.073 236.459 102.073 237.384ZM119.463 241H118.198V234.649H114.794V241H113.522V233.604H119.463V241ZM121.578 237.233C121.578 236.509 121.72 235.857 122.002 235.278C122.289 234.7 122.686 234.253 123.192 233.938C123.702 233.624 124.283 233.467 124.935 233.467C125.942 233.467 126.755 233.815 127.375 234.513C127.999 235.21 128.312 236.137 128.312 237.295V237.384C128.312 238.104 128.173 238.751 127.895 239.325C127.621 239.895 127.227 240.339 126.712 240.658C126.202 240.977 125.614 241.137 124.948 241.137C123.946 241.137 123.132 240.788 122.508 240.091C121.888 239.394 121.578 238.471 121.578 237.322V237.233ZM122.85 237.384C122.85 238.204 123.039 238.863 123.417 239.359C123.8 239.856 124.31 240.104 124.948 240.104C125.591 240.104 126.101 239.854 126.48 239.353C126.858 238.847 127.047 238.14 127.047 237.233C127.047 236.422 126.853 235.766 126.466 235.265C126.083 234.759 125.573 234.506 124.935 234.506C124.31 234.506 123.807 234.754 123.424 235.251C123.041 235.748 122.85 236.459 122.85 237.384ZM134.385 235.627C134.385 235.281 134.253 235.007 133.988 234.807C133.724 234.602 133.362 234.499 132.902 234.499C132.455 234.499 132.081 234.615 131.78 234.848C131.484 235.08 131.336 235.354 131.336 235.668H130.078C130.078 235.025 130.347 234.499 130.885 234.089C131.423 233.679 132.095 233.474 132.902 233.474C133.767 233.474 134.442 233.66 134.925 234.034C135.408 234.403 135.65 234.932 135.65 235.62C135.65 235.953 135.549 236.258 135.349 236.536C135.148 236.814 134.863 237.035 134.494 237.199C135.356 237.491 135.786 238.065 135.786 238.922C135.786 239.601 135.524 240.139 135 240.535C134.476 240.932 133.777 241.13 132.902 241.13C132.049 241.13 131.345 240.923 130.789 240.508C130.238 240.089 129.962 239.523 129.962 238.812H131.22C131.22 239.173 131.379 239.482 131.698 239.742C132.022 239.997 132.423 240.125 132.902 240.125C133.385 240.125 133.774 240.013 134.071 239.79C134.367 239.567 134.515 239.277 134.515 238.922C134.515 238.507 134.39 238.211 134.139 238.033C133.893 237.851 133.508 237.76 132.984 237.76H131.719V236.693H133.093C133.954 236.671 134.385 236.315 134.385 235.627ZM142.632 233.604H143.897V241H142.632V235.606L139.221 241H137.956V233.604H139.221V239.004L142.632 233.604ZM146.456 233.604H147.728V239.968H151.132V233.604H152.397V239.968H153.279L153.156 243.194H152.021V241H146.456V233.604ZM159.851 233.604H161.116V241H159.851V235.606L156.44 241H155.175V233.604H156.44V239.004L159.851 233.604ZM168.351 233.604H169.616V241H168.351V235.606L164.94 241H163.675V233.604H164.94V239.004L168.351 233.604ZM172.093 240.337C172.093 240.118 172.157 239.936 172.285 239.79C172.417 239.644 172.613 239.571 172.873 239.571C173.132 239.571 173.328 239.644 173.461 239.79C173.597 239.936 173.666 240.118 173.666 240.337C173.666 240.547 173.597 240.722 173.461 240.863C173.328 241.005 173.132 241.075 172.873 241.075C172.613 241.075 172.417 241.005 172.285 240.863C172.157 240.722 172.093 240.547 172.093 240.337Z" fill="#757575"/>
<rect width="270" height="120" rx="4" fill="#F5F4FA"/>
<path d="M167.316 73.3385L148.847 54.7337L150.897 44.6373C151.426 44.8438 151.988 44.9517 152.556 44.9558H152.57C155.178 44.9866 157.317 42.8974 157.348 40.2893C157.379 37.6812 155.289 35.542 152.681 35.5111C150.073 35.4803 147.934 37.5695 147.903 40.1776C147.897 40.7357 147.989 41.2905 148.176 41.8163L137.326 43.1405L119.628 25.35C119.41 25.1285 119.114 25.0025 118.804 25C118.498 25.0016 118.204 25.1235 117.987 25.3395L114.679 28.6295C114.223 29.0851 114.223 29.8236 114.679 30.2792L116.459 32.0852C109.562 44.7681 111.802 60.4741 121.97 70.7228C122.064 70.8121 122.172 70.8843 122.29 70.9363C122.216 71.3311 122.178 71.7317 122.176 72.1333V85.6667H108.176C104.956 85.6705 102.346 88.28 102.342 91.5V93.8333C102.342 94.4776 102.865 95 103.509 95H157.176C157.82 95 158.342 94.4776 158.342 93.8333V91.5C158.338 88.28 155.729 85.6705 152.509 85.6667H138.509V79.6688C140.702 80.1288 142.937 80.3633 145.178 80.3688C150.555 80.363 155.846 79.0225 160.578 76.4675L162.367 78.2677C162.584 78.4892 162.881 78.6152 163.191 78.6177C163.497 78.6161 163.79 78.4941 164.008 78.2782L167.316 74.9882C167.772 74.5326 167.772 73.7941 167.316 73.3385ZM150.925 38.6348C151.838 37.726 153.316 37.7301 154.224 38.6437C155.133 39.5574 155.129 41.0348 154.215 41.9435C153.778 42.3785 153.186 42.6226 152.569 42.6225H152.562C151.274 42.6158 150.235 41.5658 150.241 40.2771C150.244 39.6602 150.492 39.0699 150.929 38.6348H150.925ZM148.178 46.301L146.869 52.7445L144.298 50.158L148.178 46.301ZM146.853 44.3282L142.653 48.5037L139.404 45.237L146.853 44.3282ZM152.509 88C154.442 88 156.009 89.567 156.009 91.5V92.6667H104.676V91.5C104.676 89.567 106.243 88 108.176 88H152.509ZM136.176 83.3333V85.6667H124.509V83.3333H136.176ZM124.509 81V72.1333C124.509 69.303 127.126 67 130.342 67C133.559 67 136.176 69.303 136.176 72.1333V81H124.509ZM138.509 77.29V72.1333C138.509 68.0162 134.846 64.6667 130.342 64.6667C127.431 64.622 124.708 66.1041 123.165 68.5738C114.289 59.2249 112.29 45.2875 118.181 33.8207L158.872 74.7455C152.589 77.9419 145.386 78.8418 138.509 77.29ZM163.204 75.7943L161.56 74.1412L118.792 31.1157L117.141 29.4613L118.792 27.8163L136.15 45.272C136.158 45.272 136.163 45.2872 136.171 45.293L164.859 74.1493L163.204 75.7943Z" fill="#212121"/>
<path d="M130.353 69.3333H130.342C128.409 69.3304 126.84 70.895 126.837 72.8281C126.834 74.7611 128.399 76.3304 130.332 76.3333H130.342C132.275 76.3362 133.845 74.7716 133.848 72.8386C133.85 70.9055 132.286 69.3362 130.353 69.3333ZM131.169 73.6605C130.95 73.8789 130.652 74.0012 130.342 74C129.698 73.9966 129.178 73.4716 129.182 72.8273C129.183 72.5189 129.307 72.2237 129.526 72.0062C129.743 71.7902 130.036 71.6683 130.342 71.6667C130.987 71.67 131.506 72.195 131.503 72.8393C131.501 73.1477 131.378 73.4429 131.159 73.6605H131.169Z" fill="#2196F3"/>
</svg>
