<!-- Generated by IcoMoon.io -->
<svg version="1.1" xmlns="http://www.w3.org/2000/svg" width="59" height="32" viewBox="0 0 59 32">
<title>Client-3</title>
<path fill="#afb1b8" d="M23.793 22.644c0.006 0 0.011 0.001 0.016 0.003s0.010 0.005 0.013 0.008l0.076 0.073c-0.059 0.059-0.132 0.106-0.213 0.138-0.096 0.035-0.199 0.052-0.302 0.049-0.098 0.002-0.194-0.014-0.285-0.046-0.081-0.030-0.154-0.074-0.214-0.13-0.061-0.058-0.108-0.127-0.138-0.201-0.033-0.083-0.050-0.17-0.048-0.258-0.001-0.088 0.016-0.176 0.052-0.259 0.033-0.075 0.083-0.143 0.147-0.201 0.065-0.057 0.142-0.101 0.228-0.131 0.093-0.031 0.193-0.047 0.293-0.046 0.093-0.002 0.186 0.012 0.272 0.042 0.075 0.028 0.144 0.068 0.204 0.116l-0.064 0.077c-0.004 0.005-0.010 0.010-0.016 0.014-0.008 0.004-0.017 0.006-0.026 0.006s-0.019-0.003-0.027-0.008l-0.034-0.021-0.047-0.026c-0.020-0.010-0.042-0.018-0.064-0.026-0.028-0.009-0.057-0.016-0.086-0.021-0.037-0.006-0.075-0.009-0.113-0.008-0.072-0.001-0.144 0.011-0.211 0.035-0.062 0.022-0.119 0.055-0.165 0.097-0.047 0.045-0.084 0.098-0.107 0.155-0.027 0.066-0.040 0.135-0.039 0.204-0.001 0.071 0.012 0.141 0.039 0.208 0.023 0.057 0.059 0.109 0.105 0.154 0.043 0.042 0.097 0.075 0.157 0.096 0.062 0.022 0.128 0.034 0.195 0.033 0.039 0.001 0.077-0.002 0.116-0.007 0.063-0.007 0.123-0.026 0.175-0.055 0.027-0.015 0.052-0.032 0.075-0.051 0.010-0.008 0.023-0.013 0.036-0.013z"></path>
<path fill="#afb1b8" d="M25.984 22.28c0.001 0.087-0.016 0.174-0.051 0.256-0.031 0.074-0.080 0.142-0.143 0.199s-0.14 0.101-0.224 0.131c-0.186 0.062-0.391 0.062-0.577 0-0.084-0.030-0.16-0.074-0.223-0.131-0.063-0.058-0.112-0.126-0.144-0.201-0.068-0.166-0.068-0.347 0-0.513 0.032-0.075 0.081-0.143 0.144-0.202 0.064-0.055 0.139-0.098 0.223-0.126 0.185-0.063 0.391-0.063 0.577 0 0.084 0.030 0.16 0.074 0.224 0.131s0.111 0.125 0.143 0.199c0.035 0.082 0.052 0.17 0.051 0.258zM25.785 22.28c0.002-0.070-0.011-0.14-0.036-0.206-0.021-0.057-0.056-0.109-0.102-0.154-0.044-0.042-0.099-0.076-0.16-0.097-0.135-0.045-0.284-0.045-0.419 0-0.061 0.022-0.116 0.055-0.16 0.097-0.046 0.044-0.081 0.097-0.102 0.154-0.048 0.134-0.048 0.278 0 0.412 0.021 0.057 0.056 0.11 0.102 0.154 0.045 0.042 0.099 0.075 0.16 0.096 0.135 0.044 0.284 0.044 0.419 0 0.061-0.021 0.116-0.054 0.16-0.096 0.046-0.045 0.080-0.097 0.102-0.154 0.025-0.066 0.038-0.136 0.036-0.206z"></path>
<path fill="#afb1b8" d="M27.479 22.496l0.020 0.046c0.008-0.017 0.014-0.031 0.022-0.046s0.015-0.031 0.025-0.045l0.485-0.765c0.009-0.013 0.018-0.021 0.027-0.024 0.013-0.003 0.026-0.005 0.040-0.004h0.143v1.245h-0.17v-0.915c0-0.012 0-0.025 0-0.039s-0.001-0.029 0-0.043l-0.487 0.776c-0.006 0.012-0.016 0.021-0.029 0.028s-0.027 0.010-0.042 0.010h-0.027c-0.015 0-0.029-0.003-0.042-0.010s-0.022-0.017-0.028-0.028l-0.502-0.781c0 0.015 0 0.030 0 0.044s0 0.028 0 0.040v0.915h-0.164v-1.242h0.143c0.013-0.001 0.027 0.001 0.040 0.004 0.012 0.005 0.021 0.014 0.027 0.024l0.495 0.766c0.010 0.014 0.018 0.029 0.025 0.044z"></path>
<path fill="#afb1b8" d="M29.302 22.434v0.466h-0.19v-1.243h0.423c0.080-0.001 0.159 0.008 0.236 0.027 0.061 0.015 0.118 0.042 0.167 0.077 0.042 0.034 0.075 0.075 0.095 0.122 0.022 0.051 0.033 0.105 0.032 0.159 0.001 0.055-0.011 0.109-0.035 0.159-0.023 0.048-0.058 0.090-0.102 0.124-0.049 0.037-0.106 0.066-0.168 0.082-0.074 0.021-0.151 0.030-0.229 0.029l-0.23-0.003zM29.302 22.3h0.23c0.050 0.001 0.099-0.006 0.147-0.019 0.039-0.011 0.075-0.030 0.106-0.054 0.029-0.023 0.051-0.051 0.064-0.082 0.016-0.033 0.023-0.069 0.023-0.105 0.002-0.035-0.004-0.069-0.019-0.101s-0.037-0.061-0.066-0.085c-0.072-0.049-0.163-0.073-0.255-0.067h-0.23v0.512z"></path>
<path fill="#afb1b8" d="M31.851 22.902h-0.15c-0.015 0-0.030-0.004-0.042-0.012-0.011-0.008-0.019-0.018-0.025-0.029l-0.129-0.301h-0.648l-0.134 0.301c-0.005 0.011-0.013 0.021-0.024 0.028-0.012 0.008-0.027 0.013-0.043 0.012h-0.15l0.569-1.245h0.197l0.577 1.245zM30.913 22.439h0.535l-0.226-0.507c-0.017-0.038-0.031-0.077-0.043-0.117l-0.022 0.065c-0.007 0.020-0.014 0.038-0.021 0.053l-0.224 0.506z"></path>
<path fill="#afb1b8" d="M32.671 21.662c0.011 0.005 0.021 0.013 0.028 0.022l0.83 0.939c0-0.015 0-0.030 0-0.044s0-0.028 0-0.041v-0.882h0.17v1.245h-0.095c-0.014 0-0.027-0.002-0.039-0.007s-0.022-0.014-0.030-0.023l-0.829-0.938c0.001 0.014 0.001 0.029 0 0.043s0 0.026 0 0.038v0.887h-0.17v-1.245h0.101c0.012-0 0.023 0.002 0.034 0.006z"></path>
<path fill="#afb1b8" d="M35.097 22.407v0.494h-0.19v-0.494l-0.525-0.75h0.17c0.015-0.001 0.029 0.003 0.041 0.011 0.010 0.008 0.019 0.017 0.026 0.028l0.328 0.484c0.013 0.021 0.025 0.040 0.034 0.058s0.017 0.035 0.024 0.053l0.024-0.054c0.009-0.020 0.020-0.039 0.032-0.057l0.323-0.487c0.007-0.010 0.015-0.019 0.025-0.026 0.011-0.009 0.026-0.013 0.041-0.012h0.171l-0.525 0.753z"></path>
<path fill="#afb1b8" d="M27.385 19.567c0.082 0.009 0.166 0.017 0.25 0.023 1.28-0.497 2.362-1.311 3.112-2.34s1.134-2.227 1.105-3.445l-1.41-1.225c0.287 1.296 0.153 2.637-0.387 3.871s-1.464 2.313-2.67 3.117z"></path>
<path fill="#afb1b8" d="M26.881 19.51l0.038 0.007c1.288-0.801 2.271-1.919 2.82-3.209s0.64-2.695 0.261-4.031l-2.009-1.745c0.812 1.434 1.139 3.040 0.943 4.629s-0.908 3.098-2.053 4.35z"></path>
<path fill="#afb1b8" d="M33.693 15.244c-0.341 1.338-1.17 2.545-2.363 3.441-0.349 0.263-0.724 0.498-1.123 0.7 0.972-0.248 1.865-0.687 2.61-1.282s1.324-1.332 1.69-2.152l-0.815-0.707z"></path>
<path fill="#afb1b8" d="M33.374 15.047l-1.16-1.008c-0.022 1.149-0.398 2.272-1.089 3.252s-1.671 1.781-2.838 2.321h0.006c0.26-0 0.52-0.014 0.779-0.040 1.091-0.387 2.055-1.003 2.806-1.792s1.265-1.728 1.497-2.732z"></path>
<path fill="#afb1b8" d="M27.049 9.795l-1.384-1.204c-1.237 0.415-2.301 1.145-3.052 2.095s-1.156 2.074-1.159 3.226v0c0.005 1.273 0.498 2.508 1.401 3.511s2.166 1.714 3.588 2.022c1.269-1.343 2.012-3.003 2.121-4.739s-0.422-3.456-1.515-4.911z"></path>
<path fill="#afb1b8" d="M36.57 14.862c-0.005-1.51-0.698-2.958-1.927-4.026s-2.895-1.67-4.633-1.674c-0.803-0.001-1.6 0.128-2.349 0.38l8.471 7.36c0.29-0.651 0.439-1.342 0.438-2.040z"></path>
</svg>
