<!-- Generated by IcoMoon.io -->
<svg version="1.1" xmlns="http://www.w3.org/2000/svg" width="59" height="32" viewBox="0 0 59 32">
<title>Client-5</title>
<path fill="#afb1b8" d="M20.437 21.125c0.085 0.096 0.13 0.216 0.128 0.34 0.004 0.081-0.011 0.161-0.045 0.235s-0.086 0.141-0.152 0.194c-0.165 0.114-0.369 0.169-0.575 0.157h-1.010v-2.154h0.989c0.195-0.012 0.389 0.039 0.548 0.143 0.064 0.049 0.114 0.111 0.148 0.181s0.048 0.146 0.044 0.222c0.006 0.119-0.035 0.236-0.115 0.329-0.077 0.086-0.183 0.145-0.301 0.168 0.134 0.022 0.255 0.088 0.341 0.184zM19.253 20.8h0.423c0.096 0.006 0.192-0.019 0.269-0.072 0.032-0.026 0.056-0.059 0.072-0.096s0.022-0.076 0.019-0.115c0.003-0.039-0.003-0.078-0.019-0.114s-0.040-0.069-0.071-0.096c-0.080-0.054-0.178-0.080-0.277-0.073h-0.416v0.565zM19.986 21.626c0.034-0.027 0.061-0.061 0.078-0.099s0.025-0.079 0.022-0.12c0.003-0.042-0.005-0.083-0.023-0.121s-0.045-0.072-0.079-0.1c-0.083-0.056-0.184-0.084-0.287-0.078h-0.444v0.592h0.449c0.101 0.005 0.201-0.021 0.284-0.075z"></path>
<path fill="#afb1b8" d="M22.459 22.051l-0.55-0.842h-0.207v0.842h-0.473v-2.154h0.896c0.226-0.014 0.449 0.051 0.624 0.183 0.125 0.117 0.201 0.271 0.213 0.434s-0.040 0.325-0.146 0.457c-0.111 0.116-0.262 0.193-0.427 0.219l0.586 0.861h-0.515zM21.702 20.916h0.387c0.269 0 0.403-0.109 0.403-0.326 0.003-0.044-0.005-0.089-0.022-0.131s-0.043-0.080-0.077-0.111c-0.085-0.065-0.194-0.096-0.305-0.087h-0.392l0.005 0.655z"></path>
<path fill="#afb1b8" d="M25.047 21.618h-0.943l-0.167 0.433h-0.496l0.866-2.129h0.537l0.863 2.129h-0.496l-0.163-0.433zM24.921 21.291l-0.345-0.909-0.345 0.909h0.689z"></path>
<path fill="#afb1b8" d="M28.286 22.051h-0.47l-1.054-1.464v1.464h-0.469v-2.154h0.469l1.054 1.473v-1.473h0.47v2.154z"></path>
<path fill="#afb1b8" d="M30.968 21.536c-0.097 0.163-0.245 0.295-0.425 0.38-0.205 0.095-0.432 0.141-0.661 0.136h-0.837v-2.154h0.837c0.229-0.005 0.455 0.040 0.661 0.133 0.18 0.083 0.328 0.214 0.425 0.376 0.097 0.175 0.147 0.369 0.147 0.565s-0.050 0.39-0.147 0.565zM30.43 21.484c0.134-0.143 0.208-0.325 0.208-0.514s-0.074-0.371-0.208-0.514c-0.162-0.13-0.374-0.195-0.588-0.183h-0.326v1.394h0.326c0.215 0.012 0.426-0.053 0.588-0.183z"></path>
<path fill="#afb1b8" d="M25.341 7.919c0 0 6.066 2.097 5.937 5.131v5.132c0 0-6.061-2.098-5.935-5.132l-0.002-5.131z"></path>
<path fill="#afb1b8" d="M36.682 16.98c1.146-0.722 2.471-1.169 3.854-1.3v-1.607c-1.594 0.562-2.946 1.582-3.854 2.907z"></path>
<path fill="#afb1b8" d="M35.994 17.464c0.937-1.729 2.563-3.063 4.542-3.727v-4.629c0 0-8.638 2.987-8.456 7.308v7.306c0 0 0.385-0.134 0.99-0.384 0-0.234 0-0.469 0.028-0.706 0.179-2.006 1.22-3.865 2.896-5.168z"></path>
<path fill="#afb1b8" d="M35.172 20.178c0.045-0.507 0.146-1.008 0.302-1.496-1.043 1.125-1.675 2.522-1.806 3.993-0.013 0.139-0.020 0.278-0.023 0.421 0.491-0.216 1.062-0.485 1.661-0.802-0.153-0.696-0.198-1.408-0.134-2.116z"></path>
<path fill="#afb1b8" d="M35.515 20.205c-0.057 0.64-0.022 1.284 0.107 1.916 2.36-1.293 5.012-3.291 4.91-5.705v-0.21c-1.686 0.173-3.264 0.848-4.49 1.921-0.287 0.665-0.464 1.366-0.526 2.079z"></path>
</svg>
